<svg width="54" height="71" viewBox="0 0 54 71" fill="none" xmlns="http://www.w3.org/2000/svg">
<path d="M53.2025 0H0V70.8033H53.2025V0Z" fill="#C94D35"/>
<path d="M14.2568 59.3828H14.6844V61.8648H15.2648V58.8821H14.2568V59.3828Z" fill="white"/>
<path d="M17.6154 58.8152C16.82 58.8152 16.4856 59.3469 16.4856 59.8738C16.479 60.0001 16.4986 60.1265 16.543 60.245C16.5874 60.3634 16.6557 60.4716 16.7438 60.5626C16.8318 60.6536 16.9377 60.7255 17.0547 60.774C17.1718 60.8224 17.2976 60.8463 17.4243 60.8442C17.5396 60.8442 17.6536 60.8199 17.7587 60.7727L17.0541 61.6763L17.4578 61.991L18.3654 60.7751C18.5911 60.5157 18.7232 60.1883 18.7405 59.8452C18.7405 59.3016 18.3654 58.8152 17.6154 58.8152ZM17.6154 60.3793C17.5062 60.3797 17.3993 60.3478 17.3082 60.2876C17.2172 60.2274 17.1461 60.1415 17.104 60.0409C17.0618 59.9403 17.0506 59.8295 17.0716 59.7225C17.0926 59.6155 17.145 59.5172 17.222 59.4399C17.2991 59.3626 17.3974 59.3099 17.5045 59.2885C17.6116 59.2671 17.7227 59.2778 17.8236 59.3194C17.9246 59.361 18.0109 59.4316 18.0716 59.5223C18.1324 59.6129 18.1648 59.7195 18.1648 59.8285C18.1671 59.9012 18.1545 59.9737 18.1277 60.0414C18.101 60.1091 18.0606 60.1706 18.0092 60.2222C17.9577 60.2738 17.8963 60.3143 17.8286 60.3413C17.7608 60.3683 17.6883 60.3813 17.6154 60.3793Z" fill="white"/>
<path d="M21.4182 58.8271H20.8975L19.4189 61.0779V61.3378H20.8736V61.8647H21.4182V61.3378H21.7669V60.8609H21.4182V58.8271ZM20.8736 60.8705H20.1069L20.8736 59.6783V60.8705Z" fill="white"/>
<path d="M23.5081 59.8453C23.4416 59.8461 23.3753 59.8525 23.3099 59.8644L23.4174 59.3875H24.4087V58.8916H23.0352L22.6817 60.4557H22.7175C22.8812 60.3305 23.0821 60.2633 23.2884 60.2649C23.373 60.2548 23.4589 60.2627 23.5402 60.2882C23.6216 60.3137 23.6966 60.3561 23.7603 60.4127C23.8239 60.4693 23.8749 60.5387 23.9096 60.6164C23.9444 60.6941 23.9623 60.7783 23.962 60.8634C23.9648 60.9416 23.9512 61.0195 23.922 61.092C23.8927 61.1646 23.8485 61.2303 23.7922 61.2847C23.7359 61.3391 23.6687 61.3811 23.5951 61.4079C23.5215 61.4347 23.443 61.4458 23.3648 61.4404C23.2186 61.4378 23.0748 61.4024 22.9441 61.3367C22.8135 61.2711 22.6993 61.177 22.61 61.0613L22.4189 61.562C22.5442 61.6864 22.6935 61.7841 22.8577 61.8493C23.022 61.9144 23.1977 61.9457 23.3744 61.9411C24.1961 61.9411 24.54 61.4189 24.54 60.8539C24.5484 60.7174 24.5272 60.5807 24.478 60.4532C24.4288 60.3256 24.3527 60.21 24.2548 60.1144C24.1569 60.0187 24.0396 59.9452 23.9108 59.8988C23.782 59.8524 23.6447 59.8341 23.5081 59.8453Z" fill="white"/>
<path d="M27.7406 60.334H25.3735V60.7989H27.7406V60.334Z" fill="white"/>
<path d="M30.0863 60.7988C30.3252 60.5484 30.6261 60.2194 30.6261 59.7568C30.6268 59.6234 30.5993 59.4913 30.5456 59.369C30.4919 59.2468 30.413 59.1372 30.3142 59.0473C30.2154 58.9574 30.0987 58.8893 29.9718 58.8472C29.8449 58.8051 29.7106 58.7901 29.5775 58.8031C29.4426 58.7967 29.3077 58.8177 29.1811 58.8649C29.0545 58.9121 28.9389 58.9845 28.8413 59.0777C28.7436 59.171 28.666 59.2831 28.6131 59.4072C28.5603 59.5313 28.5332 59.6649 28.5337 59.7998H29.1309C29.1283 59.7355 29.1387 59.6715 29.1616 59.6114C29.1845 59.5513 29.2192 59.4965 29.2639 59.4502C29.3085 59.4038 29.362 59.367 29.4213 59.3419C29.4805 59.3167 29.5442 59.3038 29.6086 59.3038C29.6678 59.3025 29.7267 59.3133 29.7815 59.3355C29.8364 59.3578 29.8861 59.3911 29.9275 59.4334C29.969 59.4756 30.0013 59.5259 30.0224 59.5812C30.0436 59.6364 30.0531 59.6954 30.0505 59.7544C30.0366 59.9262 29.9763 60.091 29.8761 60.2313C29.7686 60.391 29.4199 60.7892 29.3673 60.8536L28.4907 61.8502H30.6405V61.3495H29.5632L30.0863 60.7988Z" fill="white"/>
<path d="M32.6635 58.8152C32.0688 58.8152 31.5122 59.3469 31.5122 60.3697C31.5122 61.3926 32.0688 61.9314 32.6635 61.9314C33.2583 61.9314 33.8148 61.3997 33.8148 60.3745C33.8148 59.3493 33.2511 58.8152 32.6635 58.8152ZM32.6635 61.4379C32.4079 61.4379 32.0902 61.1565 32.0902 60.3769C32.0902 59.5972 32.4127 59.323 32.6635 59.323C32.9143 59.323 33.2344 59.6044 33.2344 60.3769C33.2344 61.1494 32.9024 61.4307 32.6635 61.4307V61.4379Z" fill="white"/>
<path d="M36.0502 60.7988C36.2891 60.5484 36.5901 60.2194 36.5901 59.7568C36.5907 59.6234 36.5633 59.4913 36.5095 59.369C36.4558 59.2468 36.377 59.1372 36.2781 59.0473C36.1793 58.9574 36.0627 58.8893 35.9358 58.8472C35.8089 58.8051 35.6745 58.7901 35.5415 58.8031C35.4064 58.7963 35.2714 58.8171 35.1447 58.8642C35.0179 58.9113 34.9022 58.9837 34.8044 59.077C34.7067 59.1703 34.6291 59.2825 34.5764 59.4068C34.5236 59.5311 34.4968 59.6648 34.4976 59.7998H35.0948C35.0922 59.7355 35.1027 59.6715 35.1255 59.6114C35.1484 59.5513 35.1832 59.4965 35.2278 59.4502C35.2724 59.4038 35.3259 59.367 35.3852 59.3419C35.4444 59.3167 35.5081 59.3038 35.5725 59.3038C35.6317 59.3025 35.6906 59.3133 35.7455 59.3355C35.8003 59.3578 35.85 59.3911 35.8915 59.4334C35.9329 59.4756 35.9652 59.5259 35.9863 59.5812C36.0075 59.6364 36.017 59.6954 36.0144 59.7544C36.0013 59.9264 35.941 60.0914 35.84 60.2313C35.7325 60.391 35.3862 60.7892 35.3313 60.8536L34.457 61.8502H36.6068V61.3495H35.5295L36.0502 60.7988Z" fill="white"/>
<path d="M38.6205 58.8152C38.0282 58.8152 37.4692 59.3469 37.4692 60.3697C37.4692 61.3926 38.0282 61.9314 38.6205 61.9314C39.2129 61.9314 39.7742 61.3997 39.7742 60.3745C39.7742 59.3493 39.2153 58.8152 38.6205 58.8152ZM38.6205 61.4379C38.3674 61.4379 38.0497 61.1565 38.0497 60.3769C38.0497 59.5972 38.3721 59.323 38.6205 59.323C38.869 59.323 39.1938 59.6044 39.1938 60.3769C39.1938 61.1494 38.8737 61.4307 38.6205 61.4307V61.4379Z" fill="white"/>
<path d="M14.8137 56.4214V51.0615H10.0962V56.4214H11.4911V52.2513H13.414V56.4214H14.8137Z" fill="white"/>
<path d="M20.6054 55.7468C20.8731 55.4856 21.0858 55.1737 21.231 54.8294C21.3762 54.485 21.451 54.1152 21.451 53.7416C21.451 53.368 21.3762 52.9981 21.231 52.6538C21.0858 52.3095 20.8731 51.9976 20.6054 51.7364C20.02 51.2229 19.2673 50.9397 18.4879 50.9397C17.7086 50.9397 16.9559 51.2229 16.3705 51.7364C16.1028 51.9976 15.8901 52.3095 15.7449 52.6538C15.5997 52.9981 15.5249 53.368 15.5249 53.7416C15.5249 54.1152 15.5997 54.485 15.7449 54.8294C15.8901 55.1737 16.1028 55.4856 16.3705 55.7468C16.9568 56.2584 17.7092 56.5403 18.4879 56.5403C19.2667 56.5403 20.0191 56.2584 20.6054 55.7468ZM16.9748 53.7702C16.972 53.575 17.0084 53.3811 17.0819 53.2001C17.1553 53.0192 17.2643 52.8547 17.4023 52.7164C17.6949 52.4379 18.0849 52.2847 18.4891 52.2896C18.889 52.2925 19.2733 52.4447 19.5664 52.7164C19.7046 52.8496 19.8144 53.0093 19.8895 53.1858C19.9646 53.3624 20.0034 53.5522 20.0035 53.744C20.0027 53.9391 19.9626 54.132 19.8855 54.3113C19.8084 54.4906 19.696 54.6526 19.5549 54.7876C19.4139 54.9226 19.247 55.028 19.0643 55.0973C18.8816 55.1666 18.6868 55.1986 18.4915 55.1912C18.0872 55.199 17.6964 55.0464 17.4047 54.7668C17.2684 54.639 17.1599 54.4846 17.086 54.3131C17.012 54.1417 16.9742 53.9569 16.9748 53.7702Z" fill="white"/>
<path d="M25.7678 55.9397C26.0464 55.6327 26.2034 55.2349 26.2096 54.8207C26.2157 54.4065 26.0706 54.0042 25.8012 53.689C25.3975 53.2718 24.7813 53.1692 24.1005 53.1692H23.5535V52.2441H25.6483V51.052H22.1538V56.4118H24.0647C24.6977 56.4214 25.3402 56.357 25.7678 55.9397ZM23.5535 55.3365V54.2278H24.0313C24.2406 54.2086 24.4505 54.2589 24.6284 54.3709C24.6817 54.4233 24.7234 54.4861 24.751 54.5555C24.7786 54.6249 24.7913 54.6993 24.7884 54.7738C24.7923 54.9121 24.7436 55.0466 24.6523 55.1506C24.4766 55.2893 24.2544 55.3558 24.0313 55.3365H23.5535Z" fill="white"/>
<path d="M29.9594 52.2417V51.0615H26.9092V56.4214H29.9594V55.2388H28.3017V54.316H29.871V53.1335H28.3017V52.2417H29.9594Z" fill="white"/>
<path d="M36.1508 57.6254V55.3437H35.5082V51.052H31.4476V53.2527C31.4476 54.0157 31.3831 54.595 30.9699 55.0123C30.8107 55.1885 30.594 55.3026 30.3584 55.3342V57.6159H31.6148V56.4118H34.8824V57.6159L36.1508 57.6254ZM34.0966 55.3437H32.1857C32.4141 55.1167 32.5788 54.8339 32.6634 54.5235C32.754 54.1553 32.7974 53.7772 32.7924 53.3981V52.1368H34.0966V55.3437Z" fill="white"/>
<path d="M38.5658 51.0615L36.5044 56.4214H37.9758L38.3388 55.5201H40.2879L40.6176 56.4214H42.1081L40.0873 51.0615H38.5658ZM38.7258 54.4591L39.3134 52.7234L39.9177 54.4591H38.7258Z" fill="white"/>
<path d="M43.9908 55.1602C43.9135 55.0803 43.8211 55.0164 43.719 54.9722C43.6169 54.928 43.507 54.9043 43.3957 54.9026C43.1848 54.9185 42.9877 55.0134 42.8439 55.1682C42.7 55.3231 42.6201 55.5264 42.6201 55.7376C42.6201 55.9487 42.7 56.1521 42.8439 56.3069C42.9877 56.4617 43.1848 56.5566 43.3957 56.5725C43.5055 56.5721 43.6141 56.5497 43.7151 56.5067C43.8161 56.4636 43.9074 56.4009 43.9837 56.3221C44.063 56.2468 44.1254 56.1556 44.1666 56.0544C44.2078 55.9532 44.2269 55.8443 44.2227 55.7352C44.2266 55.6285 44.208 55.5221 44.168 55.4231C44.1281 55.324 44.0677 55.2345 43.9908 55.1602Z" fill="white"/>
<path d="M44.055 51.0615H42.7197V54.5974H44.055V51.0615Z" fill="white"/>
<path d="M23.4313 36.6557C24.1909 33.6181 25.7101 30.8929 27.6305 28.4347L28.187 29.0927L28.8415 26.9421L26.6488 27.2998L27.2005 27.9507C24.2363 29.5648 17.3093 33.6181 15.1524 43.5724C14.7918 45.2414 14.4717 47.8856 14.4717 47.8856C14.4717 47.8856 19.8866 47.9476 22.8318 47.6304C22.7912 43.9777 22.5428 40.1987 23.4313 36.6557Z" fill="white"/>
<path d="M39.636 34.1808C38.468 28.9354 31.7942 29.1166 28.6914 31.8919L28.2997 31.1218L27.1484 33.0673L29.365 33.2295L28.978 32.4713C31.3786 31.539 35.2505 32.0087 34.8158 35.4373C34.3811 38.8659 28.8419 40.0556 25.8418 40.4967V47.3014C26.3291 47.3253 41.8263 43.9849 39.636 34.1808Z" fill="white"/>
<path d="M37.3357 25.4473C37.9286 24.652 38.4107 23.7802 38.7689 22.8556L39.3684 23.4517L39.8461 21.2415L37.6964 21.7851L38.3007 22.3859C38.3007 22.3859 37.0658 23.1846 34.8396 23.6996C33.4357 23.9863 32.0087 24.1459 30.576 24.1765C30.4709 24.5031 29.3243 28.337 28.9326 29.6436C32.3316 29.6532 35.8452 27.5002 37.3357 25.4473Z" fill="white"/>
<path d="M27.2745 25.5543L26.9616 26.3674L29.1472 26.0097L27.8072 24.1524L27.4991 24.9678C25.8459 23.8008 23.9905 22.9495 22.0268 22.4572C20.2664 22.0209 18.1142 22.1425 16.0146 22.574V30.2514C22.237 25.2205 27.2745 25.5543 27.2745 25.5543Z" fill="white"/>
</svg>
