<svg width="51" height="52" viewBox="0 0 51 52" fill="none" xmlns="http://www.w3.org/2000/svg">
<path d="M41.3874 2.31365C40.6477 1.57268 39.7677 0.986499 38.7989 0.589305C37.8302 0.19211 36.792 -0.00813654 35.745 0.000253118H7.95607C5.84621 0.00940038 3.82267 0.83905 2.31365 2.31365C1.57268 3.05341 0.986499 3.93336 0.589305 4.90212C0.19211 5.87089 -0.00813654 6.90907 0.000253118 7.95607V43.4032C0.00940038 45.513 0.83905 47.5366 2.31365 49.0456C3.05341 49.7866 3.93336 50.3727 4.90212 50.7699C5.87089 51.1671 6.90907 51.3674 7.95607 51.359H28.327C28.7086 51.359 29.0745 51.2074 29.3444 50.9376C29.6142 50.6677 29.7658 50.3018 29.7658 49.9202C29.7658 49.5386 29.6142 49.1726 29.3444 48.9028C29.0745 48.6329 28.7086 48.4813 28.327 48.4813H7.89964V48.3685C7.24872 48.3659 6.6047 48.235 6.00442 47.9833C5.40414 47.7316 4.85939 47.3639 4.40134 46.9015C3.50566 45.9557 3.00162 44.7057 2.99074 43.4032V7.95607C2.98792 7.31269 3.1166 6.67552 3.36887 6.08365C3.62114 5.49179 3.99168 4.95771 4.45777 4.51419C4.91582 4.05171 5.46057 3.68408 6.06085 3.43236C6.66113 3.18063 7.30515 3.04973 7.95607 3.04716H35.745C37.0583 3.05858 38.3147 3.58537 39.2434 4.51409C40.1721 5.44281 40.6989 6.69914 40.7103 8.01249V27.1664C40.7096 27.3632 40.7477 27.5583 40.8225 27.7403C40.8973 27.9224 41.0074 28.0879 41.1463 28.2273C41.2852 28.3668 41.4503 28.4774 41.6321 28.5529C41.8138 28.6284 42.0087 28.6673 42.2056 28.6673C42.4019 28.6673 42.5964 28.6286 42.7778 28.5535C42.9592 28.4783 43.124 28.3682 43.2629 28.2293C43.4017 28.0905 43.5119 27.9256 43.587 27.7442C43.6621 27.5628 43.7008 27.3684 43.7008 27.172V7.95607C43.6917 5.84621 42.862 3.82267 41.3874 2.31365Z" fill="#C94D35"/>
<path d="M50.0217 49.6357C49.4936 50.2822 48.7144 50.6529 47.8837 50.6529H34.4818C33.6466 50.6529 32.8649 50.2825 32.3374 49.6368C31.8067 48.987 31.6005 48.1429 31.7718 47.3209C32.2152 45.193 33.3895 43.2568 35.0782 41.869C35.7178 41.3434 36.4206 40.906 37.1658 40.5641C36.3354 39.6244 35.8304 38.393 35.8304 37.0457C35.8304 34.1051 38.2313 31.7131 41.1828 31.7131C44.1342 31.7131 46.5352 34.1051 46.5352 37.0457C46.5352 38.393 46.0302 39.6244 45.1997 40.5641C45.9449 40.906 46.6477 41.3431 47.2873 41.869C48.9422 43.2291 50.1029 45.1158 50.5661 47.1932C50.5768 47.2293 50.5859 47.2656 50.5937 47.3027C50.7658 48.1295 50.5572 48.9798 50.0217 49.6357ZM38.5752 37.0457C38.5752 38.4782 39.7449 39.6436 41.1828 39.6436C42.6206 39.6436 43.7903 38.4782 43.7903 37.0457C43.7903 35.6132 42.6206 34.4478 41.1828 34.4478C39.7449 34.4478 38.5752 35.6132 38.5752 37.0457ZM47.9068 47.8796C47.9065 47.8788 47.9062 47.8769 47.9062 47.8769C47.2471 44.7147 44.4194 42.4194 41.1828 42.4194C37.9461 42.4194 35.1181 44.7147 34.4593 47.8769C34.4531 47.9076 34.4743 47.9177 34.4743 47.9177C34.4743 47.9177 34.4772 47.9183 34.4818 47.9183H47.8837C47.8845 47.9175 47.903 47.9036 47.9068 47.8796Z" fill="#C94D35"/>
<path d="M34.6886 20.261H9.08741C8.20373 20.261 7.4873 20.9774 7.4873 21.8611C7.4873 22.7448 8.20373 23.4612 9.08741 23.4612H34.6886C35.5723 23.4612 36.2887 22.7448 36.2887 21.8611C36.2887 20.9774 35.5723 20.261 34.6886 20.261Z" fill="#C94D35"/>
<path d="M34.6886 11.4521H9.08741C8.20373 11.4521 7.4873 12.1686 7.4873 13.0523C7.4873 13.9359 8.20373 14.6524 9.08741 14.6524H34.6886C35.5723 14.6524 36.2887 13.9359 36.2887 13.0523C36.2887 12.1686 35.5723 11.4521 34.6886 11.4521Z" fill="#C94D35"/>
<path d="M28.2868 29.0706H8.71083C8.03512 29.0706 7.4873 29.787 7.4873 30.6707C7.4873 31.5543 8.03512 32.2708 8.71083 32.2708H28.2868C28.9625 32.2708 29.5103 31.5543 29.5103 30.6707C29.5103 29.7869 28.9625 29.0706 28.2868 29.0706Z" fill="#C94D35"/>
<path d="M22.0225 37.8796H8.80871C8.07894 37.8796 7.4873 38.5961 7.4873 39.4797C7.4873 40.3634 8.07894 41.0799 8.80871 41.0799H22.0225C22.7522 41.0799 23.3439 40.3634 23.3439 39.4797C23.3439 38.5961 22.7522 37.8796 22.0225 37.8796Z" fill="#C94D35"/>
</svg>
