<svg width="109" height="27" viewBox="0 0 109 27" fill="none" xmlns="http://www.w3.org/2000/svg">
<path d="M6.96622 9.0892C6.02307 9.43023 5.50264 9.54035 4.91295 9.54035C3.60114 9.5688 2.33148 9.0764 1.38188 8.17091C0.505901 7.28476 0.0101371 6.09187 0 4.84588C0.00859961 3.58492 0.503636 2.37597 1.38188 1.47111C1.83498 1.01921 2.37304 0.66147 2.96506 0.418506C3.55707 0.175543 4.19132 0.0521651 4.83124 0.0554852C5.56539 0.0690592 6.28967 0.227193 6.96267 0.520848V3.36276C6.721 3.04564 6.40807 2.78987 6.0492 2.61614C5.69033 2.44241 5.2956 2.35561 4.89696 2.36276C4.29151 2.34015 3.70144 2.5564 3.25398 2.96489C3.00164 3.2055 2.8013 3.4953 2.66535 3.81638C2.52941 4.13746 2.46073 4.483 2.46358 4.83167C2.46477 5.49825 2.73053 6.1371 3.20247 6.60786C3.67262 7.01792 4.27668 7.2416 4.90051 7.23663C5.25575 7.23663 6.13141 7.19578 6.96622 6.27926V9.0892Z" fill="#C94D35"/>
<path d="M17.3001 9.33415V2.22938H14.0319V9.33415H11.6606V0.206299H19.6819V9.33415H17.3001Z" fill="#C94D35"/>
<path d="M23.9643 6.30929V9.32882H21.5967V0.206299H25.3746C26.1686 0.206299 26.9892 0.355499 27.6837 1.0269C28.3782 1.6983 28.5327 2.47805 28.5327 3.24359C28.5327 3.97005 28.4368 4.81907 27.7245 5.51534C27.0123 6.2116 26.165 6.30929 25.4528 6.30929H23.9643ZM23.9643 4.39456H24.7583C25.0052 4.39456 25.4688 4.36614 25.7583 4.10682C25.8666 3.9983 25.9497 3.86723 26.0016 3.72293C26.0535 3.57863 26.0729 3.42467 26.0585 3.27201C26.0705 3.12358 26.0524 2.97427 26.0054 2.83297C25.9584 2.69168 25.8834 2.5613 25.7849 2.44963C25.5114 2.16366 25.0745 2.12103 24.7725 2.12103H23.9643V4.39456Z" fill="#C94D35"/>
<path d="M34.6817 7.80129H31.3691L30.7527 9.33415H28.2412L31.7527 0.206299H34.3389L37.7758 9.33415H35.243L34.6817 7.80129ZM34.0529 5.99491L33.0263 3.03932L32.0263 5.99491H34.0529Z" fill="#C94D35"/>
<path d="M38.7458 0.98604C39.1389 0.723141 39.5616 0.507335 40.0051 0.343059C40.6219 0.110058 41.2766 -0.00618792 41.9358 0.000253774C43.2502 0.000253774 43.9749 0.424764 44.3852 0.820854C44.6166 1.04215 44.7976 1.31081 44.9156 1.60847C45.0336 1.90614 45.0859 2.22578 45.069 2.54554C45.084 3.01515 44.9449 3.47676 44.6729 3.85992C44.4596 4.17327 44.1665 4.42404 43.8239 4.58638V4.62723C44.1998 4.74104 44.5456 4.93701 44.8364 5.20094C45.0464 5.39673 45.2134 5.63417 45.3265 5.8981C45.4397 6.16203 45.4966 6.44665 45.4936 6.7338C45.4968 7.1619 45.3951 7.58428 45.1972 7.96392C44.9993 8.34357 44.7114 8.6689 44.3586 8.91141C43.5504 9.47268 42.4829 9.54018 41.7849 9.54018C41.0309 9.55845 40.281 9.4237 39.5806 9.14409C39.0297 8.90943 38.5214 8.58535 38.0762 8.18495L39.2804 6.46026C39.5522 6.77007 39.8762 7.02979 40.2378 7.22758C40.6171 7.42929 41.0409 7.5325 41.4705 7.52775C41.8177 7.53749 42.1616 7.45734 42.4687 7.29507C42.5989 7.2174 42.7066 7.10705 42.7811 6.97496C42.8555 6.84286 42.8942 6.6936 42.8932 6.54197C42.8887 6.40296 42.8486 6.26743 42.7767 6.14834C42.7049 6.02924 42.6037 5.93055 42.4829 5.86169C42.3195 5.75334 42.0033 5.64322 41.3604 5.64322H40.4723V3.80486H41.0619C41.5131 3.80486 42.1703 3.73736 42.4829 3.42298C42.6338 3.26748 42.7174 3.05882 42.7156 2.84216C42.7108 2.71466 42.6762 2.59007 42.6145 2.47839C42.5528 2.36672 42.4657 2.27108 42.3603 2.19918C42.0977 2.03573 41.7921 1.95468 41.4829 1.9665C41.1134 1.96399 40.7485 2.04793 40.4172 2.21161C40.1477 2.35026 39.8956 2.52017 39.6659 2.71783L38.7458 0.98604Z" fill="#C94D35"/>
<path d="M54.842 0.206299V7.50112H55.9379V11.3874H53.8065V9.33415H48.2452V11.3874H46.1138V7.50112C46.5134 7.44563 46.881 7.2521 47.1528 6.95405C47.8385 6.24358 47.9468 5.25601 47.9468 3.95584V0.206299H54.842ZM50.2434 4.18852C50.2517 4.83402 50.1783 5.47797 50.0249 6.10503C49.8848 6.63095 49.6113 7.11181 49.231 7.50112H52.4601V2.03933H50.2434V4.18852Z" fill="#C94D35"/>
<path d="M59.5361 3.61303H62.9571V0.206299H65.3389V9.33415H62.9571V5.63967H59.5361V9.33415H57.1685V0.206299H59.5361V3.61303Z" fill="#C94D35"/>
<path d="M69.6372 0.206299V5.95406L73.0582 0.206299H75.488V9.33415H73.099V3.58639L69.6781 9.33415H67.2554V0.206299H69.6372Z" fill="#C94D35"/>
<path d="M79.7651 3.97005L82.6656 0.206299H85.5946L81.9676 4.53133L85.9232 9.32704H82.8575L79.7651 5.37857V9.33415H77.3975V0.206299H79.7651V3.97005Z" fill="#C94D35"/>
<path d="M94.4365 8.18518C93.5057 9.07328 92.1914 9.54041 90.8379 9.54041C89.4845 9.54041 88.1736 9.07505 87.2376 8.18518C86.7827 7.74038 86.4213 7.20919 86.1746 6.6228C85.9279 6.03641 85.8008 5.40663 85.8008 4.77045C85.8008 4.13427 85.9279 3.5045 86.1746 2.91811C86.4213 2.33172 86.7827 1.80053 87.2376 1.35572C88.1683 0.467627 89.4827 0.000488281 90.8379 0.000488281C92.1931 0.000488281 93.5022 0.465851 94.4365 1.35572C94.8913 1.80053 95.2527 2.33172 95.4994 2.91811C95.7462 3.5045 95.8733 4.13427 95.8733 4.77045C95.8733 5.40663 95.7462 6.03641 95.4994 6.6228C95.2527 7.20919 94.8913 7.74038 94.4365 8.18518ZM88.9871 3.02001C88.7535 3.2561 88.5691 3.53627 88.4447 3.84424C88.3203 4.15221 88.2583 4.48184 88.2624 4.81397C88.2604 5.13208 88.3237 5.44724 88.4483 5.73992C88.573 6.03261 88.7563 6.2966 88.9871 6.51556C89.2326 6.75191 89.5222 6.93757 89.8395 7.06192C90.1568 7.18626 90.4954 7.24686 90.8361 7.24025C91.1683 7.25312 91.4997 7.19902 91.8105 7.08117C92.1213 6.96331 92.4053 6.78412 92.6454 6.55425C92.8856 6.32439 93.077 6.04855 93.2083 5.74316C93.3397 5.43778 93.4082 5.10909 93.4098 4.77667C93.4096 4.44945 93.3441 4.12556 93.2173 3.82394C93.0904 3.52232 92.9047 3.24902 92.6709 3.02001C92.1694 2.56363 91.516 2.31034 90.8379 2.30954C90.152 2.2965 89.4881 2.55137 88.9871 3.02001Z" fill="#C94D35"/>
<path d="M96.9692 9.33415L98.5145 0.206299H100.856L102.703 5.07839L104.657 0.206299H107.024L108.394 9.33415H106.038L105.358 4.0855L103.156 9.34125H102.211L100.102 4.0855L99.3227 9.34125L96.9692 9.33415Z" fill="#C94D35"/>
<path d="M6.04957 24.7497V17.645H2.77782V24.7497H0.410156V15.6201H8.43144V24.7497H6.04957Z" fill="#C94D35"/>
<path d="M18.5735 23.5988C17.6428 24.4869 16.3284 24.954 14.9732 24.954C13.6179 24.954 12.3089 24.4886 11.3728 23.5988C10.918 23.154 10.5566 22.6228 10.3099 22.0364C10.0631 21.45 9.93604 20.8202 9.93604 20.184C9.93604 19.5478 10.0631 18.9181 10.3099 18.3317C10.5566 17.7453 10.918 17.2141 11.3728 16.7693C12.3035 15.8812 13.6179 15.4141 14.9732 15.4141C16.3284 15.4141 17.6375 15.8794 18.5735 16.7693C19.0283 17.2141 19.3897 17.7453 19.6365 18.3317C19.8832 18.9181 20.0103 19.5478 20.0103 20.184C20.0103 20.8202 19.8832 21.45 19.6365 22.0364C19.3897 22.6228 19.0283 23.154 18.5735 23.5988ZM13.1259 18.4389C12.8916 18.6746 12.7067 18.9547 12.582 19.2627C12.4572 19.5707 12.3952 19.9006 12.3995 20.2329C12.398 20.5503 12.4617 20.8646 12.5866 21.1564C12.7116 21.4482 12.8951 21.7112 13.1259 21.9291C13.3708 22.1659 13.6601 22.352 13.9771 22.4766C14.2941 22.6013 14.6326 22.6621 14.9732 22.6556C15.305 22.6672 15.6359 22.6123 15.9462 22.494C16.2564 22.3757 16.5399 22.1964 16.7798 21.9668C17.0197 21.7372 17.2111 21.4618 17.3429 21.157C17.4746 20.8522 17.544 20.5241 17.5469 20.192C17.5461 19.8654 17.4803 19.5422 17.3535 19.2413C17.2266 18.9403 17.0412 18.6676 16.808 18.4389C16.308 17.9772 15.6537 17.7188 14.9732 17.7142C14.2864 17.7052 13.6234 17.9653 13.1259 18.4389Z" fill="#C94D35"/>
<path d="M21.5151 15.6201H27.4547V17.6308H23.9023V19.2062H24.8331C25.9965 19.2062 27.0373 19.3839 27.7212 20.0943C28.1807 20.6298 28.4288 21.3148 28.4187 22.0204C28.4085 22.726 28.1409 23.4035 27.6661 23.9256C26.9414 24.6361 25.8455 24.748 24.7514 24.748H21.5151V15.6201ZM24.7123 22.9025C24.9734 22.9025 25.4796 22.8901 25.7673 22.5881C25.9228 22.4105 26.0058 22.1811 26 21.9451C26.0044 21.8184 25.9824 21.6921 25.9353 21.5744C25.8882 21.4567 25.8171 21.35 25.7265 21.2613C25.4512 21.0286 25.016 21.0144 24.7123 21.0144H23.8917V22.9025H24.7123Z" fill="#C94D35"/>
<path d="M35.1067 17.6308H32.2861V19.1512H34.9504V21.1636H32.2861V22.7355H35.1067V24.748H29.9185V15.6201H35.1067V17.6308Z" fill="#C94D35"/>
<path d="M44.6178 15.6201V22.9132H45.7137V26.7995H43.5822V24.7497H38.021V26.8012H35.8789V22.9132C36.2785 22.8577 36.6461 22.6641 36.918 22.3661C37.6036 21.6556 37.7119 20.6681 37.7119 19.3679V15.6201H44.6178ZM40.0192 19.6023C40.0284 20.2479 39.955 20.8919 39.8007 21.5188C39.6617 22.0452 39.3881 22.5264 39.0068 22.9149H42.2359V17.4531H40.0192V19.6023Z" fill="#C94D35"/>
<path d="M46.9448 15.6202H49.3267V19.1726H50.4759C51.2024 19.1726 52.3924 19.2276 53.2006 20.0216C53.4462 20.2773 53.6372 20.5804 53.7618 20.9123C53.8864 21.2443 53.942 21.5981 53.9253 21.9523C53.9253 22.5669 53.8151 23.2791 53.2414 23.867C52.4599 24.661 51.2556 24.7445 50.3391 24.7445H46.9448V15.6202ZM50.2432 22.9132C50.5025 22.9132 50.9963 22.9132 51.2699 22.6397C51.4379 22.4525 51.5264 22.2072 51.5167 21.9559C51.5249 21.8317 51.5057 21.7072 51.4606 21.5912C51.4155 21.4752 51.3455 21.3705 51.2556 21.2845C50.9963 21.0376 50.586 21.0109 50.2432 21.0109H49.3267V22.9132H50.2432ZM54.6837 15.6184H57.0656V24.748H54.6784L54.6837 15.6184Z" fill="#C94D35"/>
<path d="M59.359 24.5846C59.1617 24.3861 59.0274 24.1337 58.973 23.8592C58.9185 23.5847 58.9463 23.3002 59.053 23.0414C59.1596 22.7827 59.3402 22.5611 59.5723 22.4047C59.8043 22.2482 60.0774 22.1637 60.3573 22.1618C60.5469 22.1645 60.7341 22.2046 60.9082 22.2799C61.0822 22.3552 61.2397 22.4642 61.3715 22.6006C61.6283 22.8678 61.7706 23.2248 61.768 23.5954C61.7653 23.9661 61.6179 24.321 61.3573 24.5846C61.2278 24.7189 61.0727 24.8258 60.901 24.8988C60.7293 24.9718 60.5447 25.0094 60.3581 25.0094C60.1716 25.0094 59.987 24.9718 59.8153 24.8988C59.6436 24.8258 59.4884 24.7189 59.359 24.5846ZM59.2081 21.6414V15.6201H61.4798V21.6414H59.2081Z" fill="#C94D35"/>
</svg>
