<svg width="8" height="15" viewBox="0 0 8 15" fill="none" xmlns="http://www.w3.org/2000/svg">
<path d="M2.68829 7.50317L7.78256 1.89146C7.92283 1.73732 8 1.53122 8 1.31146C8 1.09159 7.92283 0.88561 7.78256 0.73122L7.33618 0.239756C7.19613 0.0851219 7.00891 0 6.80941 0C6.60991 0 6.42292 0.0851219 6.28276 0.239756L0.217219 6.92098C0.0765045 7.07585 -0.00055059 7.2828 2.9661e-06 7.5028C-0.00055059 7.72378 0.0763937 7.93049 0.217219 8.08549L6.27711 14.7602C6.41727 14.9149 6.60426 15 6.80388 15C7.00338 15 7.19037 14.9149 7.33064 14.7602L7.77692 14.2688C8.06731 13.9489 8.06731 13.4282 7.77692 13.1084L2.68829 7.50317Z" fill="black"/>
</svg>
