<svg width="8" height="11" viewBox="0 0 8 11" fill="none" xmlns="http://www.w3.org/2000/svg">
<path d="M3.36116 7.94997C2.52592 7.86741 1.77283 7.67248 1.12807 7.1946C1.04807 7.13515 0.96547 7.07783 0.892463 7.01143C0.610252 6.75458 0.581817 6.46041 0.805125 6.15726C0.996162 5.89784 1.31685 5.82844 1.65018 5.9774C1.71472 6.00627 1.77622 6.04231 1.83512 6.08102C3.03675 6.86343 4.68747 6.88503 5.89361 6.1162C6.01311 6.02937 6.14084 5.95858 6.28888 5.92244C6.57674 5.8524 6.84518 5.95259 6.99966 6.19126C7.17614 6.46383 7.17388 6.72988 6.95644 6.94149C6.62289 7.26592 6.22175 7.50064 5.77603 7.66446C5.35458 7.81929 4.89295 7.89725 4.43606 7.949C4.50501 8.02011 4.53751 8.05508 4.58061 8.09614C5.201 8.68683 5.8241 9.27506 6.44246 9.86757C6.65313 10.0695 6.69714 10.3198 6.58114 10.5546C6.45431 10.8112 6.1704 10.9801 5.89203 10.962C5.71566 10.9505 5.57811 10.8673 5.45591 10.7506C4.98774 10.3042 4.51076 9.86597 4.05207 9.41108C3.91858 9.2788 3.85438 9.30383 3.73657 9.41867C3.26558 9.87816 2.78692 10.3306 2.30544 10.7804C2.08924 10.9824 1.83196 11.0188 1.58123 10.9034C1.31471 10.781 1.14511 10.5232 1.1582 10.2641C1.16723 10.0888 1.25817 9.95493 1.38512 9.83485C1.99908 9.25389 2.61134 8.67143 3.22383 8.08951C3.26434 8.0508 3.30214 8.00974 3.36116 7.94997Z" fill="white"/>
<path d="M3.8698 5.92532C2.37972 5.92051 1.15786 4.74996 1.16655 3.33573C1.17513 1.90588 2.39777 0.753622 3.90253 0.757579C5.41033 0.761428 6.62056 1.93026 6.613 3.37497C6.60533 4.78632 5.37501 5.93024 3.8698 5.92532ZM5.22402 3.33915C5.22143 2.63695 4.63126 2.07793 3.89169 2.07729C3.14592 2.07654 2.55045 2.64572 2.5562 3.35433C2.56173 4.05386 3.15698 4.60893 3.89858 4.60636C4.63792 4.6039 5.22651 4.04124 5.22402 3.33915Z" fill="white"/>
</svg>
