<svg width="63" height="65" viewBox="0 0 63 65" fill="none" xmlns="http://www.w3.org/2000/svg">
<path d="M60.3514 1.01611C60.3514 1.48817 60.7216 1.87085 61.1782 1.87085C61.6347 1.87085 62.0049 1.48817 62.0049 1.01611C62.0049 0.544056 61.6347 0.161377 61.1782 0.161377C60.7216 0.161377 60.3514 0.544055 60.3514 1.01611Z" fill="#888888"/>
<path d="M51.7396 1.01599C51.7396 1.48805 52.1097 1.87073 52.5663 1.87073C53.0229 1.87073 53.3931 1.48805 53.3931 1.01599C53.3931 0.543933 53.0229 0.161255 52.5663 0.161255C52.1097 0.161255 51.7396 0.543933 51.7396 1.01599Z" fill="#888888"/>
<path d="M43.1278 1.01599C43.1278 1.48805 43.4979 1.87073 43.9545 1.87073C44.4111 1.87073 44.7812 1.48805 44.7812 1.01599C44.7812 0.543933 44.4111 0.161255 43.9545 0.161255C43.4979 0.161255 43.1278 0.543933 43.1278 1.01599Z" fill="#888888"/>
<path d="M34.516 1.01599C34.516 1.48805 34.8861 1.87073 35.3427 1.87073C35.7993 1.87073 36.1694 1.48805 36.1694 1.01599C36.1694 0.543933 35.7993 0.161255 35.3427 0.161255C34.8861 0.161255 34.516 0.543933 34.516 1.01599Z" fill="#888888"/>
<path d="M25.8353 1.01599C25.8353 1.48805 26.2054 1.87073 26.662 1.87073C27.1186 1.87073 27.4888 1.48805 27.4888 1.01599C27.4888 0.543933 27.1186 0.161255 26.662 0.161255C26.2054 0.161255 25.8353 0.543933 25.8353 1.01599Z" fill="#888888"/>
<path d="M17.2235 1.01599C17.2235 1.48805 17.5936 1.87073 18.0502 1.87073C18.5068 1.87073 18.877 1.48805 18.877 1.01599C18.877 0.543933 18.5068 0.161255 18.0502 0.161255C17.5936 0.161255 17.2235 0.543933 17.2235 1.01599Z" fill="#888888"/>
<path d="M8.61167 1.01599C8.61167 1.48805 8.98181 1.87073 9.4384 1.87073C9.895 1.87073 10.2651 1.48805 10.2651 1.01599C10.2651 0.543933 9.895 0.161255 9.4384 0.161255C8.98181 0.161255 8.61167 0.543933 8.61167 1.01599Z" fill="#888888"/>
<path d="M-0.000147856 1.01599C-0.000147876 1.48805 0.369993 1.87073 0.826586 1.87073C1.28318 1.87073 1.65332 1.48805 1.65332 1.01599C1.65332 0.543933 1.28318 0.161255 0.826586 0.161255C0.369994 0.161255 -0.000147836 0.543933 -0.000147856 1.01599Z" fill="#888888"/>
<path d="M60.3514 9.99072C60.3514 10.4628 60.7216 10.8455 61.1782 10.8455C61.6347 10.8455 62.0049 10.4628 62.0049 9.99072C62.0049 9.51866 61.6347 9.13599 61.1782 9.13599C60.7216 9.13599 60.3514 9.51866 60.3514 9.99072Z" fill="#888888"/>
<path d="M51.7396 9.99072C51.7396 10.4628 52.1097 10.8455 52.5663 10.8455C53.0229 10.8455 53.3931 10.4628 53.3931 9.99072C53.3931 9.51866 53.0229 9.13599 52.5663 9.13599C52.1097 9.13599 51.7396 9.51866 51.7396 9.99072Z" fill="#888888"/>
<path d="M43.1278 9.99072C43.1278 10.4628 43.4979 10.8455 43.9545 10.8455C44.4111 10.8455 44.7812 10.4628 44.7812 9.99072C44.7812 9.51866 44.4111 9.13599 43.9545 9.13599C43.4979 9.13599 43.1278 9.51866 43.1278 9.99072Z" fill="#888888"/>
<path d="M34.516 9.99072C34.516 10.4628 34.8861 10.8455 35.3427 10.8455C35.7993 10.8455 36.1694 10.4628 36.1694 9.99072C36.1694 9.51866 35.7993 9.13599 35.3427 9.13599C34.8861 9.13599 34.516 9.51866 34.516 9.99072Z" fill="#888888"/>
<path d="M25.8353 9.99072C25.8353 10.4628 26.2054 10.8455 26.662 10.8455C27.1186 10.8455 27.4888 10.4628 27.4888 9.99072C27.4888 9.51866 27.1186 9.13599 26.662 9.13599C26.2054 9.13599 25.8353 9.51866 25.8353 9.99072Z" fill="#888888"/>
<path d="M17.2235 9.99072C17.2235 10.4628 17.5936 10.8455 18.0502 10.8455C18.5068 10.8455 18.877 10.4628 18.877 9.99072C18.877 9.51866 18.5068 9.13599 18.0502 9.13599C17.5936 9.13599 17.2235 9.51866 17.2235 9.99072Z" fill="#888888"/>
<path d="M8.61167 9.99072C8.61167 10.4628 8.98181 10.8455 9.4384 10.8455C9.895 10.8455 10.2651 10.4628 10.2651 9.99072C10.2651 9.51866 9.895 9.13599 9.4384 9.13599C8.98181 9.13599 8.61167 9.51866 8.61167 9.99072Z" fill="#888888"/>
<path d="M-0.000147855 9.99072C-0.000147874 10.4628 0.369993 10.8455 0.826586 10.8455C1.28318 10.8455 1.65332 10.4628 1.65332 9.99072C1.65332 9.51866 1.28318 9.13599 0.826586 9.13599C0.369994 9.13599 -0.000147835 9.51866 -0.000147855 9.99072Z" fill="#888888"/>
<path d="M60.3514 18.9657C60.3514 19.4378 60.7216 19.8204 61.1782 19.8204C61.6347 19.8204 62.0049 19.4378 62.0049 18.9657C62.0049 18.4936 61.6347 18.111 61.1782 18.111C60.7216 18.111 60.3514 18.4936 60.3514 18.9657Z" fill="#888888"/>
<path d="M51.7396 18.9657C51.7396 19.4378 52.1097 19.8204 52.5663 19.8204C53.0229 19.8204 53.3931 19.4378 53.3931 18.9657C53.3931 18.4936 53.0229 18.111 52.5663 18.111C52.1097 18.111 51.7396 18.4936 51.7396 18.9657Z" fill="#888888"/>
<path d="M43.1278 18.9657C43.1278 19.4378 43.4979 19.8204 43.9545 19.8204C44.4111 19.8204 44.7812 19.4378 44.7812 18.9657C44.7812 18.4936 44.4111 18.111 43.9545 18.111C43.4979 18.111 43.1278 18.4936 43.1278 18.9657Z" fill="#888888"/>
<path d="M34.516 18.9657C34.516 19.4378 34.8861 19.8204 35.3427 19.8204C35.7993 19.8204 36.1694 19.4378 36.1694 18.9657C36.1694 18.4936 35.7993 18.111 35.3427 18.111C34.8861 18.111 34.516 18.4936 34.516 18.9657Z" fill="#888888"/>
<path d="M25.8353 18.9657C25.8353 19.4378 26.2054 19.8204 26.662 19.8204C27.1186 19.8204 27.4888 19.4378 27.4888 18.9657C27.4888 18.4936 27.1186 18.111 26.662 18.111C26.2054 18.111 25.8353 18.4936 25.8353 18.9657Z" fill="#888888"/>
<path d="M17.2235 18.9657C17.2235 19.4378 17.5936 19.8204 18.0502 19.8204C18.5068 19.8204 18.877 19.4378 18.877 18.9657C18.877 18.4936 18.5068 18.111 18.0502 18.111C17.5936 18.111 17.2235 18.4936 17.2235 18.9657Z" fill="#888888"/>
<path d="M8.61167 18.9657C8.61167 19.4378 8.98181 19.8204 9.4384 19.8204C9.895 19.8204 10.2651 19.4378 10.2651 18.9657C10.2651 18.4936 9.895 18.111 9.4384 18.111C8.98181 18.111 8.61167 18.4936 8.61167 18.9657Z" fill="#888888"/>
<path d="M-0.000147855 18.9657C-0.000147874 19.4378 0.369993 19.8204 0.826586 19.8204C1.28318 19.8204 1.65332 19.4378 1.65332 18.9657C1.65332 18.4936 1.28318 18.111 0.826586 18.111C0.369994 18.111 -0.000147835 18.4936 -0.000147855 18.9657Z" fill="#888888"/>
<path d="M60.3515 27.9406C60.3515 28.4126 60.7216 28.7953 61.1782 28.7953C61.6348 28.7953 62.0049 28.4126 62.0049 27.9406C62.0049 27.4685 61.6348 27.0858 61.1782 27.0858C60.7216 27.0858 60.3515 27.4685 60.3515 27.9406Z" fill="#888888"/>
<path d="M51.7396 27.9406C51.7396 28.4126 52.1097 28.7953 52.5663 28.7953C53.0229 28.7953 53.3931 28.4126 53.3931 27.9406C53.3931 27.4685 53.0229 27.0858 52.5663 27.0858C52.1097 27.0858 51.7396 27.4685 51.7396 27.9406Z" fill="#888888"/>
<path d="M43.1278 27.9406C43.1278 28.4126 43.4979 28.7953 43.9545 28.7953C44.4111 28.7953 44.7812 28.4126 44.7812 27.9406C44.7812 27.4685 44.4111 27.0858 43.9545 27.0858C43.4979 27.0858 43.1278 27.4685 43.1278 27.9406Z" fill="#888888"/>
<path d="M34.5159 27.9406C34.5159 28.4126 34.8861 28.7953 35.3427 28.7953C35.7993 28.7953 36.1694 28.4126 36.1694 27.9406C36.1694 27.4685 35.7993 27.0858 35.3427 27.0858C34.8861 27.0858 34.5159 27.4685 34.5159 27.9406Z" fill="#888888"/>
<path d="M25.8353 27.9406C25.8353 28.4126 26.2054 28.7953 26.662 28.7953C27.1186 28.7953 27.4888 28.4126 27.4888 27.9406C27.4888 27.4685 27.1186 27.0858 26.662 27.0858C26.2054 27.0858 25.8353 27.4685 25.8353 27.9406Z" fill="#888888"/>
<path d="M17.2235 27.9406C17.2235 28.4126 17.5936 28.7953 18.0502 28.7953C18.5068 28.7953 18.877 28.4126 18.877 27.9406C18.877 27.4685 18.5068 27.0858 18.0502 27.0858C17.5936 27.0858 17.2235 27.4685 17.2235 27.9406Z" fill="#888888"/>
<path d="M8.61167 27.9406C8.61167 28.4126 8.98181 28.7953 9.4384 28.7953C9.895 28.7953 10.2651 28.4126 10.2651 27.9406C10.2651 27.4685 9.895 27.0858 9.4384 27.0858C8.98181 27.0858 8.61167 27.4685 8.61167 27.9406Z" fill="#888888"/>
<path d="M-0.000147855 27.9406C-0.000147874 28.4126 0.369993 28.7953 0.826586 28.7953C1.28318 28.7953 1.65332 28.4126 1.65332 27.9406C1.65332 27.4685 1.28318 27.0858 0.826586 27.0858C0.369994 27.0858 -0.000147835 27.4685 -0.000147855 27.9406Z" fill="#888888"/>
<path d="M60.3515 36.9866C60.3515 37.4586 60.7216 37.8413 61.1782 37.8413C61.6348 37.8413 62.0049 37.4586 62.0049 36.9866C62.0049 36.5145 61.6348 36.1318 61.1782 36.1318C60.7216 36.1318 60.3515 36.5145 60.3515 36.9866Z" fill="#888888"/>
<path d="M51.7396 36.9866C51.7396 37.4586 52.1097 37.8413 52.5663 37.8413C53.0229 37.8413 53.3931 37.4586 53.3931 36.9866C53.3931 36.5145 53.0229 36.1318 52.5663 36.1318C52.1097 36.1318 51.7396 36.5145 51.7396 36.9866Z" fill="#888888"/>
<path d="M43.1278 36.9866C43.1278 37.4586 43.4979 37.8413 43.9545 37.8413C44.4111 37.8413 44.7812 37.4586 44.7812 36.9866C44.7812 36.5145 44.4111 36.1318 43.9545 36.1318C43.4979 36.1318 43.1278 36.5145 43.1278 36.9866Z" fill="#888888"/>
<path d="M34.5159 36.9866C34.5159 37.4586 34.8861 37.8413 35.3427 37.8413C35.7993 37.8413 36.1694 37.4586 36.1694 36.9866C36.1694 36.5145 35.7993 36.1318 35.3427 36.1318C34.8861 36.1318 34.5159 36.5145 34.5159 36.9866Z" fill="#888888"/>
<path d="M25.8353 36.9866C25.8353 37.4586 26.2054 37.8413 26.662 37.8413C27.1186 37.8413 27.4888 37.4586 27.4888 36.9866C27.4888 36.5145 27.1186 36.1318 26.662 36.1318C26.2054 36.1318 25.8353 36.5145 25.8353 36.9866Z" fill="#888888"/>
<path d="M17.2235 36.9866C17.2235 37.4586 17.5936 37.8413 18.0502 37.8413C18.5068 37.8413 18.877 37.4586 18.877 36.9866C18.877 36.5145 18.5068 36.1318 18.0502 36.1318C17.5936 36.1318 17.2235 36.5145 17.2235 36.9866Z" fill="#888888"/>
<path d="M8.61166 36.9866C8.61166 37.4586 8.9818 37.8413 9.4384 37.8413C9.89499 37.8413 10.2651 37.4586 10.2651 36.9866C10.2651 36.5145 9.89499 36.1318 9.4384 36.1318C8.9818 36.1318 8.61166 36.5145 8.61166 36.9866Z" fill="#888888"/>
<path d="M-0.000157153 36.9866C-0.000157172 37.4586 0.369986 37.8413 0.826582 37.8413C1.28318 37.8413 1.65332 37.4586 1.65332 36.9866C1.65332 36.5145 1.28318 36.1318 0.826582 36.1318C0.369986 36.1318 -0.000157134 36.5145 -0.000157153 36.9866Z" fill="#888888"/>
<path d="M60.3514 45.9615C60.3514 46.4335 60.7216 46.8162 61.1782 46.8162C61.6347 46.8162 62.0049 46.4335 62.0049 45.9615C62.0049 45.4894 61.6347 45.1067 61.1782 45.1067C60.7216 45.1067 60.3514 45.4894 60.3514 45.9615Z" fill="#888888"/>
<path d="M51.7396 45.9615C51.7396 46.4335 52.1097 46.8162 52.5663 46.8162C53.0229 46.8162 53.3931 46.4335 53.3931 45.9615C53.3931 45.4894 53.0229 45.1067 52.5663 45.1067C52.1097 45.1067 51.7396 45.4894 51.7396 45.9615Z" fill="#888888"/>
<path d="M43.1278 45.9615C43.1278 46.4335 43.4979 46.8162 43.9545 46.8162C44.4111 46.8162 44.7812 46.4335 44.7812 45.9615C44.7812 45.4894 44.4111 45.1067 43.9545 45.1067C43.4979 45.1067 43.1278 45.4894 43.1278 45.9615Z" fill="#888888"/>
<path d="M34.5159 45.9615C34.5159 46.4335 34.8861 46.8162 35.3427 46.8162C35.7993 46.8162 36.1694 46.4335 36.1694 45.9615C36.1694 45.4894 35.7993 45.1067 35.3427 45.1067C34.8861 45.1067 34.5159 45.4894 34.5159 45.9615Z" fill="#888888"/>
<path d="M25.8353 45.9615C25.8353 46.4335 26.2054 46.8162 26.662 46.8162C27.1186 46.8162 27.4888 46.4335 27.4888 45.9615C27.4888 45.4894 27.1186 45.1067 26.662 45.1067C26.2054 45.1067 25.8353 45.4894 25.8353 45.9615Z" fill="#888888"/>
<path d="M17.2235 45.9615C17.2235 46.4335 17.5936 46.8162 18.0502 46.8162C18.5068 46.8162 18.877 46.4335 18.877 45.9615C18.877 45.4894 18.5068 45.1067 18.0502 45.1067C17.5936 45.1067 17.2235 45.4894 17.2235 45.9615Z" fill="#888888"/>
<path d="M8.61167 45.9615C8.61167 46.4335 8.98181 46.8162 9.4384 46.8162C9.895 46.8162 10.2651 46.4335 10.2651 45.9615C10.2651 45.4894 9.895 45.1067 9.4384 45.1067C8.98181 45.1067 8.61167 45.4894 8.61167 45.9615Z" fill="#888888"/>
<path d="M-0.000147855 45.9615C-0.000147874 46.4335 0.369993 46.8162 0.826586 46.8162C1.28318 46.8162 1.65332 46.4335 1.65332 45.9615C1.65332 45.4894 1.28318 45.1067 0.826586 45.1067C0.369994 45.1067 -0.000147835 45.4894 -0.000147855 45.9615Z" fill="#888888"/>
<path d="M60.3514 54.9362C60.3514 55.4083 60.7216 55.7909 61.1782 55.7909C61.6347 55.7909 62.0049 55.4083 62.0049 54.9362C62.0049 54.4641 61.6347 54.0814 61.1782 54.0814C60.7216 54.0814 60.3514 54.4641 60.3514 54.9362Z" fill="#888888"/>
<path d="M51.7396 54.9362C51.7396 55.4083 52.1097 55.7909 52.5663 55.7909C53.0229 55.7909 53.3931 55.4083 53.3931 54.9362C53.3931 54.4641 53.0229 54.0814 52.5663 54.0814C52.1097 54.0814 51.7396 54.4641 51.7396 54.9362Z" fill="#888888"/>
<path d="M43.1278 54.9362C43.1278 55.4083 43.4979 55.7909 43.9545 55.7909C44.4111 55.7909 44.7812 55.4083 44.7812 54.9362C44.7812 54.4641 44.4111 54.0814 43.9545 54.0814C43.4979 54.0814 43.1278 54.4641 43.1278 54.9362Z" fill="#888888"/>
<path d="M34.5159 54.9362C34.5159 55.4083 34.8861 55.7909 35.3427 55.7909C35.7993 55.7909 36.1694 55.4083 36.1694 54.9362C36.1694 54.4641 35.7993 54.0814 35.3427 54.0814C34.8861 54.0814 34.5159 54.4641 34.5159 54.9362Z" fill="#888888"/>
<path d="M25.8353 54.9362C25.8353 55.4083 26.2054 55.7909 26.662 55.7909C27.1186 55.7909 27.4888 55.4083 27.4888 54.9362C27.4888 54.4641 27.1186 54.0814 26.662 54.0814C26.2054 54.0814 25.8353 54.4641 25.8353 54.9362Z" fill="#888888"/>
<path d="M17.2235 54.9362C17.2235 55.4083 17.5936 55.7909 18.0502 55.7909C18.5068 55.7909 18.877 55.4083 18.877 54.9362C18.877 54.4641 18.5068 54.0814 18.0502 54.0814C17.5936 54.0814 17.2235 54.4641 17.2235 54.9362Z" fill="#888888"/>
<path d="M8.61167 54.9362C8.61167 55.4083 8.98181 55.7909 9.4384 55.7909C9.895 55.7909 10.2651 55.4083 10.2651 54.9362C10.2651 54.4641 9.895 54.0814 9.4384 54.0814C8.98181 54.0814 8.61167 54.4641 8.61167 54.9362Z" fill="#888888"/>
<path d="M-0.000147855 54.9362C-0.000147874 55.4083 0.369993 55.7909 0.826586 55.7909C1.28318 55.7909 1.65332 55.4083 1.65332 54.9362C1.65332 54.4641 1.28318 54.0814 0.826586 54.0814C0.369994 54.0814 -0.000147835 54.4641 -0.000147855 54.9362Z" fill="#888888"/>
<path d="M60.3514 63.911C60.3514 64.3831 60.7216 64.7658 61.1782 64.7658C61.6347 64.7658 62.0049 64.3831 62.0049 63.911C62.0049 63.439 61.6347 63.0563 61.1782 63.0563C60.7216 63.0563 60.3514 63.439 60.3514 63.911Z" fill="#888888"/>
<path d="M51.7396 63.911C51.7396 64.3831 52.1097 64.7658 52.5663 64.7658C53.0229 64.7658 53.3931 64.3831 53.3931 63.911C53.3931 63.439 53.0229 63.0563 52.5663 63.0563C52.1097 63.0563 51.7396 63.439 51.7396 63.911Z" fill="#888888"/>
<path d="M43.1278 63.911C43.1278 64.3831 43.4979 64.7658 43.9545 64.7658C44.4111 64.7658 44.7812 64.3831 44.7812 63.911C44.7812 63.439 44.4111 63.0563 43.9545 63.0563C43.4979 63.0563 43.1278 63.439 43.1278 63.911Z" fill="#888888"/>
<path d="M34.5159 63.911C34.5159 64.3831 34.8861 64.7658 35.3427 64.7658C35.7993 64.7658 36.1694 64.3831 36.1694 63.911C36.1694 63.439 35.7993 63.0563 35.3427 63.0563C34.8861 63.0563 34.5159 63.439 34.5159 63.911Z" fill="#888888"/>
<path d="M25.8353 63.911C25.8353 64.3831 26.2054 64.7658 26.662 64.7658C27.1186 64.7658 27.4888 64.3831 27.4888 63.911C27.4888 63.439 27.1186 63.0563 26.662 63.0563C26.2054 63.0563 25.8353 63.439 25.8353 63.911Z" fill="#888888"/>
<path d="M17.2235 63.911C17.2235 64.3831 17.5936 64.7658 18.0502 64.7658C18.5068 64.7658 18.877 64.3831 18.877 63.911C18.877 63.439 18.5068 63.0563 18.0502 63.0563C17.5936 63.0563 17.2235 63.439 17.2235 63.911Z" fill="#888888"/>
<path d="M8.61167 63.911C8.61167 64.3831 8.98181 64.7658 9.4384 64.7658C9.895 64.7658 10.2651 64.3831 10.2651 63.911C10.2651 63.439 9.895 63.0563 9.4384 63.0563C8.98181 63.0563 8.61167 63.439 8.61167 63.911Z" fill="#888888"/>
<path d="M-0.000147855 63.911C-0.000147874 64.3831 0.369993 64.7658 0.826586 64.7658C1.28318 64.7658 1.65332 64.3831 1.65332 63.911C1.65332 63.439 1.28318 63.0563 0.826586 63.0563C0.369994 63.0563 -0.000147835 63.439 -0.000147855 63.911Z" fill="#888888"/>
</svg>
