<svg width="52" height="119" viewBox="0 0 52 119" fill="none" xmlns="http://www.w3.org/2000/svg">
<path d="M48.417 1.56997C48.417 2.43704 49.0969 3.13994 49.9356 3.13994C50.7742 3.13994 51.4541 2.43704 51.4541 1.56997C51.4541 0.7029 50.7742 -3.07225e-08 49.9356 -6.86207e-08C49.0969 -1.06519e-07 48.417 0.7029 48.417 1.56997Z" fill="#C94D35"/>
<path d="M32.5986 1.56997C32.5986 2.43704 33.2785 3.13994 34.1172 3.13994C34.9559 3.13994 35.6357 2.43704 35.6357 1.56997C35.6357 0.7029 34.9559 -3.07227e-08 34.1172 -6.86211e-08C33.2785 -1.06519e-07 32.5986 0.7029 32.5986 1.56997Z" fill="#C94D35"/>
<path d="M16.7808 1.56997C16.7808 2.43704 17.4607 3.13994 18.2993 3.13994C19.138 3.13994 19.8179 2.43704 19.8179 1.56997C19.8179 0.7029 19.138 -3.07225e-08 18.2993 -6.86205e-08C17.4607 -1.06519e-07 16.7808 0.7029 16.7808 1.56997Z" fill="#C94D35"/>
<path d="M0.962438 1.56997C0.962438 2.43704 1.64231 3.13994 2.48097 3.13994C3.31964 3.13994 3.99951 2.43704 3.99951 1.56997C3.99951 0.7029 3.31964 -3.07225e-08 2.48097 -6.86205e-08C1.64231 -1.06519e-07 0.962438 0.7029 0.962438 1.56997Z" fill="#C94D35"/>
<path d="M48.417 18.0548C48.417 18.9219 49.0969 19.6248 49.9356 19.6248C50.7742 19.6248 51.4541 18.9219 51.4541 18.0548C51.4541 17.1878 50.7742 16.4849 49.9356 16.4849C49.0969 16.4849 48.417 17.1878 48.417 18.0548Z" fill="#C94D35"/>
<path d="M32.5986 18.0548C32.5986 18.9219 33.2785 19.6248 34.1172 19.6248C34.9559 19.6248 35.6357 18.9219 35.6357 18.0548C35.6357 17.1878 34.9559 16.4849 34.1172 16.4849C33.2785 16.4849 32.5986 17.1878 32.5986 18.0548Z" fill="#C94D35"/>
<path d="M16.7808 18.0548C16.7808 18.9219 17.4607 19.6248 18.2993 19.6248C19.138 19.6248 19.8179 18.9219 19.8179 18.0548C19.8179 17.1878 19.138 16.4849 18.2993 16.4849C17.4607 16.4849 16.7808 17.1878 16.7808 18.0548Z" fill="#C94D35"/>
<path d="M0.962438 18.0548C0.962438 18.9219 1.64231 19.6248 2.48097 19.6248C3.31964 19.6248 3.99951 18.9219 3.99951 18.0548C3.99951 17.1878 3.31964 16.4849 2.48097 16.4849C1.64231 16.4849 0.962438 17.1878 0.962438 18.0548Z" fill="#C94D35"/>
<path d="M48.417 34.5397C48.417 35.4068 49.0969 36.1097 49.9356 36.1097C50.7742 36.1097 51.4541 35.4068 51.4541 34.5397C51.4541 33.6726 50.7742 32.9697 49.9356 32.9697C49.0969 32.9697 48.417 33.6726 48.417 34.5397Z" fill="#C94D35"/>
<path d="M32.5986 34.5397C32.5986 35.4068 33.2785 36.1097 34.1172 36.1097C34.9559 36.1097 35.6357 35.4068 35.6357 34.5397C35.6357 33.6726 34.9559 32.9697 34.1172 32.9697C33.2785 32.9697 32.5986 33.6726 32.5986 34.5397Z" fill="#C94D35"/>
<path d="M16.7808 34.5397C16.7808 35.4068 17.4607 36.1097 18.2993 36.1097C19.138 36.1097 19.8179 35.4068 19.8179 34.5397C19.8179 33.6726 19.138 32.9697 18.2993 32.9697C17.4607 32.9697 16.7808 33.6726 16.7808 34.5397Z" fill="#C94D35"/>
<path d="M0.962438 34.5397C0.962438 35.4068 1.64231 36.1097 2.48097 36.1097C3.31964 36.1097 3.99951 35.4068 3.99951 34.5397C3.99951 33.6726 3.31964 32.9697 2.48097 32.9697C1.64231 32.9697 0.962438 33.6726 0.962438 34.5397Z" fill="#C94D35"/>
<path d="M48.417 51.0246C48.417 51.8916 49.0969 52.5945 49.9356 52.5945C50.7742 52.5945 51.4541 51.8916 51.4541 51.0246C51.4541 50.1575 50.7742 49.4546 49.9356 49.4546C49.0969 49.4546 48.417 50.1575 48.417 51.0246Z" fill="#C94D35"/>
<path d="M32.5986 51.0246C32.5986 51.8916 33.2785 52.5945 34.1172 52.5945C34.9559 52.5945 35.6357 51.8916 35.6357 51.0246C35.6357 50.1575 34.9559 49.4546 34.1172 49.4546C33.2785 49.4546 32.5986 50.1575 32.5986 51.0246Z" fill="#C94D35"/>
<path d="M16.7808 51.0246C16.7808 51.8916 17.4607 52.5945 18.2993 52.5945C19.138 52.5945 19.8179 51.8916 19.8179 51.0246C19.8179 50.1575 19.138 49.4546 18.2993 49.4546C17.4607 49.4546 16.7808 50.1575 16.7808 51.0246Z" fill="#C94D35"/>
<path d="M0.962438 51.0246C0.962438 51.8916 1.64231 52.5945 2.48097 52.5945C3.31964 52.5945 3.99951 51.8916 3.99951 51.0246C3.99951 50.1575 3.31964 49.4546 2.48097 49.4546C1.64231 49.4546 0.962438 50.1575 0.962438 51.0246Z" fill="#C94D35"/>
<path d="M48.417 67.6403C48.417 68.5074 49.0969 69.2103 49.9356 69.2103C50.7742 69.2103 51.4541 68.5074 51.4541 67.6403C51.4541 66.7732 50.7742 66.0703 49.9356 66.0703C49.0969 66.0703 48.417 66.7732 48.417 67.6403Z" fill="#C94D35"/>
<path d="M32.5986 67.6403C32.5986 68.5074 33.2785 69.2103 34.1172 69.2103C34.9559 69.2103 35.6357 68.5074 35.6357 67.6403C35.6357 66.7732 34.9559 66.0703 34.1172 66.0703C33.2785 66.0703 32.5986 66.7732 32.5986 67.6403Z" fill="#C94D35"/>
<path d="M16.7808 67.6403C16.7808 68.5074 17.4607 69.2103 18.2993 69.2103C19.138 69.2103 19.8179 68.5074 19.8179 67.6403C19.8179 66.7732 19.138 66.0703 18.2993 66.0703C17.4607 66.0703 16.7808 66.7732 16.7808 67.6403Z" fill="#C94D35"/>
<path d="M0.962421 67.6403C0.962421 68.5074 1.6423 69.2103 2.48097 69.2103C3.31964 69.2103 3.99951 68.5074 3.99951 67.6403C3.99951 66.7732 3.31964 66.0703 2.48097 66.0703C1.6423 66.0703 0.962421 66.7732 0.962421 67.6403Z" fill="#C94D35"/>
<path d="M48.417 84.1252C48.417 84.9923 49.0969 85.6952 49.9356 85.6952C50.7742 85.6952 51.4541 84.9923 51.4541 84.1252C51.4541 83.2581 50.7742 82.5552 49.9356 82.5552C49.0969 82.5552 48.417 83.2581 48.417 84.1252Z" fill="#C94D35"/>
<path d="M32.5987 84.1252C32.5987 84.9923 33.2785 85.6952 34.1172 85.6952C34.9559 85.6952 35.6357 84.9923 35.6357 84.1252C35.6357 83.2581 34.9559 82.5552 34.1172 82.5552C33.2785 82.5552 32.5987 83.2581 32.5987 84.1252Z" fill="#C94D35"/>
<path d="M16.7808 84.1252C16.7808 84.9923 17.4607 85.6952 18.2993 85.6952C19.138 85.6952 19.8179 84.9923 19.8179 84.1252C19.8179 83.2581 19.138 82.5552 18.2993 82.5552C17.4607 82.5552 16.7808 83.2581 16.7808 84.1252Z" fill="#C94D35"/>
<path d="M0.962438 84.1252C0.962438 84.9923 1.64231 85.6952 2.48097 85.6952C3.31964 85.6952 3.99951 84.9923 3.99951 84.1252C3.99951 83.2581 3.31964 82.5552 2.48097 82.5552C1.64231 82.5552 0.962438 83.2581 0.962438 84.1252Z" fill="#C94D35"/>
<path d="M48.417 100.61C48.417 101.477 49.0969 102.18 49.9356 102.18C50.7742 102.18 51.4541 101.477 51.4541 100.61C51.4541 99.743 50.7742 99.04 49.9356 99.04C49.0969 99.04 48.417 99.743 48.417 100.61Z" fill="#C94D35"/>
<path d="M32.5987 100.61C32.5987 101.477 33.2785 102.18 34.1172 102.18C34.9559 102.18 35.6357 101.477 35.6357 100.61C35.6357 99.743 34.9559 99.04 34.1172 99.04C33.2785 99.04 32.5987 99.743 32.5987 100.61Z" fill="#C94D35"/>
<path d="M16.7808 100.61C16.7808 101.477 17.4607 102.18 18.2993 102.18C19.138 102.18 19.8179 101.477 19.8179 100.61C19.8179 99.743 19.138 99.04 18.2993 99.04C17.4607 99.04 16.7808 99.743 16.7808 100.61Z" fill="#C94D35"/>
<path d="M0.962438 100.61C0.962438 101.477 1.64231 102.18 2.48097 102.18C3.31964 102.18 3.99951 101.477 3.99951 100.61C3.99951 99.743 3.31964 99.04 2.48097 99.04C1.64231 99.04 0.962438 99.743 0.962438 100.61Z" fill="#C94D35"/>
<path d="M48.417 117.095C48.417 117.962 49.0969 118.665 49.9356 118.665C50.7742 118.665 51.4541 117.962 51.4541 117.095C51.4541 116.228 50.7742 115.525 49.9356 115.525C49.0969 115.525 48.417 116.228 48.417 117.095Z" fill="#C94D35"/>
<path d="M32.5986 117.095C32.5986 117.962 33.2785 118.665 34.1172 118.665C34.9559 118.665 35.6357 117.962 35.6357 117.095C35.6357 116.228 34.9559 115.525 34.1172 115.525C33.2785 115.525 32.5986 116.228 32.5986 117.095Z" fill="#C94D35"/>
<path d="M16.7808 117.095C16.7808 117.962 17.4607 118.665 18.2993 118.665C19.138 118.665 19.8179 117.962 19.8179 117.095C19.8179 116.228 19.138 115.525 18.2993 115.525C17.4607 115.525 16.7808 116.228 16.7808 117.095Z" fill="#C94D35"/>
<path d="M0.962438 117.095C0.962438 117.962 1.64231 118.665 2.48097 118.665C3.31964 118.665 3.99951 117.962 3.99951 117.095C3.99951 116.228 3.31964 115.525 2.48097 115.525C1.64231 115.525 0.962438 116.228 0.962438 117.095Z" fill="#C94D35"/>
</svg>
