<svg width="8" height="15" viewBox="0 0 8 15" fill="none" xmlns="http://www.w3.org/2000/svg">
<path d="M5.31171 7.49683L0.217436 13.1085C0.0771643 13.2627 -8.19811e-07 13.4688 -8.39023e-07 13.6885C-8.58245e-07 13.9084 0.0771643 14.1144 0.217435 14.2688L0.663823 14.7602C0.803873 14.9149 0.991086 15 1.19059 15C1.39009 15 1.57708 14.9149 1.71724 14.7602L7.78278 8.07903C7.9235 7.92415 8.00055 7.7172 8 7.4972C8.00055 7.27622 7.92361 7.06951 7.78278 6.91451L1.72289 0.239758C1.58273 0.0851235 1.39574 1.32999e-06 1.19612 1.31253e-06C0.996623 1.29509e-06 0.809631 0.0851234 0.66936 0.239758L0.223083 0.731221C-0.0673129 1.0511 -0.067313 1.57183 0.223083 1.89159L5.31171 7.49683Z" fill="black"/>
</svg>
