<svg width="51" height="51" viewBox="0 0 51 51" fill="none" xmlns="http://www.w3.org/2000/svg">
<path d="M49.1358 18.7857C47.2567 17.2089 44.445 17.4556 42.8711 19.3313L38.6408 24.3371V9.82133C38.6408 8.60472 38.1349 7.42654 37.2529 6.58881L31.6074 1.22603C30.7752 0.435462 29.6848 0 28.5369 0H4.45856C2.00015 0 0 2.00015 0 4.45856V46.27C0 48.7284 2.00015 50.7285 4.45856 50.7285H34.1824C36.6408 50.7285 38.6409 48.7284 38.6409 46.27V38.1492C38.8235 37.9329 49.6512 25.1074 49.6853 25.0671C51.2693 23.1794 51.0238 20.3698 49.1358 18.7857ZM29.7238 3.53621C35.67 9.18464 35.2477 8.77177 35.3591 8.91722H29.7238V3.53621ZM35.6685 46.27C35.6685 47.0895 35.0018 47.7562 34.1823 47.7562H4.45856C3.63906 47.7562 2.97234 47.0895 2.97234 46.27V4.45856C2.97234 3.63906 3.63906 2.97234 4.45856 2.97234H26.7514V10.4032C26.7514 11.224 27.4168 11.8895 28.2376 11.8895H35.6685V27.8543C35.0301 28.6097 29.9041 34.6754 29.3501 35.331C28.9075 35.8585 28.5889 36.4913 28.429 37.161L27.0478 42.943C26.9171 43.4905 27.1069 44.065 27.5381 44.4269C27.9697 44.7891 28.5684 44.8756 29.0844 44.652L34.5389 42.2877C34.9484 42.1101 35.3303 41.869 35.6685 41.5792V46.27ZM32.1336 36.6424L34.4102 38.5527L33.9039 39.1524C33.7566 39.3281 33.5673 39.4693 33.3567 39.5606L30.6296 40.7427L31.3203 37.8517C31.3736 37.6285 31.4797 37.4176 31.6239 37.2458L32.1336 36.6424ZM36.3276 36.2815L34.052 34.3721C34.2828 34.0989 41.7504 25.2623 42.2668 24.6512L44.5376 26.5567L36.3276 36.2815ZM47.4113 23.153L46.4553 24.2855L44.1855 22.381L45.1448 21.2458C45.6689 20.6213 46.6023 20.5399 47.2252 21.0626C47.8605 21.5956 47.9306 22.5342 47.4113 23.153Z" fill="#C94D35"/>
<path d="M22.2934 8.91675H7.43153C6.61074 8.91675 5.94531 9.58218 5.94531 10.403C5.94531 11.2238 6.61074 11.8892 7.43153 11.8892H22.2934C23.1142 11.8892 23.7796 11.2238 23.7796 10.403C23.7796 9.58218 23.1142 8.91675 22.2934 8.91675Z" fill="#C94D35"/>
<path d="M31.2106 17.9331H7.43153C6.61074 17.9331 5.94531 18.5985 5.94531 19.4193C5.94531 20.2401 6.61074 20.9055 7.43153 20.9055H31.2106C32.0313 20.9055 32.6968 20.2401 32.6968 19.4193C32.6968 18.5985 32.0313 17.9331 31.2106 17.9331Z" fill="#C94D35"/>
<path d="M31.2106 26.8503H7.43153C6.61074 26.8503 5.94531 27.5158 5.94531 28.3366C5.94531 29.1574 6.61074 29.8228 7.43153 29.8228H31.2106C32.0313 29.8228 32.6968 29.1574 32.6968 28.3366C32.6968 27.5157 32.0313 26.8503 31.2106 26.8503Z" fill="#C94D35"/>
<path d="M22.2934 35.7676H7.43153C6.61074 35.7676 5.94531 36.433 5.94531 37.2538C5.94531 38.0746 6.61074 38.74 7.43153 38.74H22.2934C23.1142 38.74 23.7796 38.0746 23.7796 37.2538C23.7796 36.433 23.1142 35.7676 22.2934 35.7676Z" fill="#C94D35"/>
</svg>
