<svg width="58" height="52" viewBox="0 0 58 52" fill="none" xmlns="http://www.w3.org/2000/svg">
<path d="M21.7431 20.532C23.9319 20.532 25.7063 18.7576 25.7063 16.5687C25.7063 14.3799 23.9319 12.6055 21.7431 12.6055C19.5542 12.6055 17.7798 14.3799 17.7798 16.5687C17.7798 18.7576 19.5542 20.532 21.7431 20.532Z" fill="#C94D35"/>
<path d="M54.2749 31.1558C52.4034 29.3943 50.0364 28.2384 47.4493 27.9081V7.76142C47.4493 5.61465 46.5685 3.68805 45.1924 2.25687C43.7612 0.825683 41.8346 0 39.6878 0H7.76142C5.61465 0 3.68805 0.880729 2.25687 2.25687C0.825683 3.68805 0 5.61465 0 7.76142V33.1374V35.5044V40.6236C0 42.7704 0.880729 44.697 2.25687 46.1282C3.68805 47.5594 5.61465 48.385 7.76142 48.385H38.642C40.6787 50.0364 43.2108 51.0823 46.0181 51.0823C49.2658 51.0823 52.1832 49.7612 54.2749 47.6694C56.3666 45.5777 57.6877 42.6603 57.6877 39.4126C57.6877 36.1649 56.3666 33.2475 54.2749 31.1558ZM2.91741 7.76142C2.91741 6.44033 3.46787 5.22933 4.3486 4.40364C5.22933 3.52291 6.44033 2.97246 7.76142 2.97246H39.6878C41.0089 2.97246 42.2199 3.52291 43.1007 4.40364C43.9814 5.28437 44.5319 6.49537 44.5319 7.81647V24.9907L36.3851 16.8439C35.8347 16.2935 34.8989 16.2384 34.2934 16.8439L22.0182 29.1741L13.7063 20.8072C13.1559 20.2568 12.2201 20.2017 11.6146 20.8072L2.91741 29.6145V7.76142ZM7.70638 45.5777V45.4676C6.38528 45.4676 5.17428 44.9172 4.29355 44.0364C3.46787 43.1557 2.91741 41.9447 2.91741 40.6236V35.5044V33.798L12.6605 23.9999L20.9724 32.3117C21.5228 32.8622 22.4586 32.8622 23.0641 32.3117L35.3392 19.9815L43.3759 28.0732C43.2108 28.1283 43.0456 28.1833 42.8805 28.2384C42.6603 28.2934 42.4401 28.3485 42.1649 28.4585C41.9447 28.5136 41.7245 28.6237 41.5043 28.6787C41.3392 28.7338 41.2291 28.7888 41.064 28.8989C40.8438 29.009 40.6787 29.064 40.5135 29.1741C40.2383 29.3393 39.9631 29.5044 39.6878 29.6695C39.5227 29.7796 39.4126 29.8347 39.2475 29.9448C39.1374 29.9998 39.0823 30.0549 38.9723 30.1099C38.4768 30.4402 38.0365 30.8255 37.6512 31.2659C35.5594 33.3576 34.2383 36.275 34.2383 39.5227C34.2383 40.3484 34.3484 41.119 34.5136 41.9447C34.5686 42.1649 34.6237 42.33 34.6787 42.5502C34.8438 43.1007 35.009 43.6511 35.2292 44.2016V44.2566C35.4493 44.697 35.6695 45.1924 35.9447 45.5777H7.70638ZM52.1281 45.5777C50.5318 47.174 48.385 48.1098 45.963 48.1098C43.6511 48.1098 41.5043 47.174 39.9631 45.6878C39.7429 45.4676 39.5227 45.1924 39.3025 44.9722C39.1374 44.8071 38.9723 44.5869 38.8071 44.4218C38.5869 44.1465 38.4218 43.8163 38.2567 43.486C38.1466 43.2658 38.0365 43.1007 37.9264 42.8805C37.8163 42.6053 37.7062 42.275 37.6512 41.9447C37.5961 41.7245 37.486 41.4493 37.431 41.2291C37.3209 40.6787 37.2658 40.0732 37.2658 39.4677C37.2658 37.0457 38.2567 34.8989 39.7979 33.3026C41.3392 31.7062 43.541 30.7705 45.963 30.7705C48.385 30.7705 50.5318 31.7613 52.1281 33.3026C53.7245 34.8989 54.6602 37.0457 54.6602 39.4677C54.6602 41.8346 53.6694 43.9814 52.1281 45.5777Z" fill="#C94D35"/>
<path d="M47.0092 33.5228C46.8991 33.4127 46.734 33.3026 46.5138 33.1925C46.3486 33.1374 46.1835 33.0824 46.0184 33.0824C45.9633 33.0824 45.9633 33.0824 45.9633 33.0824C45.9083 33.0824 45.9083 33.0824 45.9083 33.0824C45.7431 33.0824 45.578 33.1374 45.4129 33.1925C45.2477 33.2475 45.0826 33.3576 44.9175 33.5228L41.5046 36.9356C40.9542 37.486 40.9542 38.4218 41.5046 39.0273C42.0551 39.5778 42.9909 39.5778 43.5964 39.0273L44.4771 38.1466V44.2016C44.4771 45.0273 45.1376 45.6878 45.9633 45.6878C46.789 45.6878 47.4496 45.0273 47.4496 44.2016V38.1466L48.3303 39.0273C48.8807 39.5778 49.8165 39.5778 50.422 39.0273C50.9725 38.4769 50.9725 37.5411 50.422 36.9356L47.0092 33.5228Z" fill="#C94D35"/>
</svg>
