<svg width="44" height="52" viewBox="0 0 44 52" fill="none" xmlns="http://www.w3.org/2000/svg">
<path d="M41.3874 2.31365C40.6477 1.57268 39.7677 0.986499 38.7989 0.589305C37.8302 0.19211 36.792 -0.00813654 35.745 0.000253118H7.95607C5.84621 0.00940038 3.82267 0.83905 2.31365 2.31365C1.57268 3.05341 0.986499 3.93336 0.589305 4.90212C0.19211 5.87089 -0.00813654 6.90907 0.000253118 7.95607V43.4032C0.00940038 45.513 0.83905 47.5366 2.31365 49.0456C3.05341 49.7866 3.93336 50.3727 4.90212 50.7699C5.87089 51.1671 6.90907 51.3674 7.95607 51.359H28.327C28.7086 51.359 29.0745 51.2074 29.3444 50.9376C29.6142 50.6677 29.7658 50.3018 29.7658 49.9202C29.7658 49.5386 29.6142 49.1726 29.3444 48.9028C29.0745 48.6329 28.7086 48.4813 28.327 48.4813H7.89964V48.3685C7.24872 48.3659 6.6047 48.235 6.00442 47.9833C5.40414 47.7316 4.85939 47.3639 4.40134 46.9015C3.50566 45.9557 3.00162 44.7057 2.99074 43.4032V7.95607C2.98792 7.31269 3.1166 6.67552 3.36887 6.08365C3.62114 5.49179 3.99168 4.95771 4.45777 4.51419C4.91582 4.05171 5.46057 3.68408 6.06085 3.43236C6.66113 3.18063 7.30515 3.04973 7.95607 3.04716H35.745C37.0583 3.05858 38.3147 3.58537 39.2434 4.51409C40.1721 5.44281 40.6989 6.69914 40.7103 8.01249V27.1664C40.7096 27.3632 40.7477 27.5583 40.8225 27.7403C40.8973 27.9224 41.0074 28.0879 41.1463 28.2273C41.2852 28.3668 41.4503 28.4774 41.6321 28.5529C41.8138 28.6284 42.0087 28.6673 42.2056 28.6673C42.4019 28.6673 42.5964 28.6286 42.7778 28.5535C42.9592 28.4783 43.124 28.3682 43.2629 28.2293C43.4017 28.0905 43.5119 27.9256 43.587 27.7442C43.6621 27.5628 43.7008 27.3684 43.7008 27.172V7.95607C43.6917 5.84621 42.862 3.82267 41.3874 2.31365Z" fill="#C94D35"/>
</svg>
