<svg width="14" height="9" viewBox="0 0 14 9" fill="none" xmlns="http://www.w3.org/2000/svg">
<path fill-rule="evenodd" clip-rule="evenodd" d="M7.83581 7.9888C7.83581 7.9888 8.06455 7.96385 8.18172 7.84032C8.28896 7.72714 8.28524 7.51355 8.28524 7.51355C8.28524 7.51355 8.27098 6.51622 8.74274 6.36896C9.20767 6.22413 9.80465 7.33344 10.4382 7.76C10.9168 8.08251 11.28 8.01192 11.28 8.01192L12.973 7.9888C12.973 7.9888 13.8583 7.93525 13.4386 7.2519C13.4039 7.19591 13.1937 6.74623 12.1802 5.82252C11.1182 4.85561 11.2608 5.01199 12.5391 3.33922C13.3177 2.32058 13.6289 1.69869 13.5316 1.43277C13.4392 1.17842 12.8664 1.24596 12.8664 1.24596L10.9608 1.25752C10.9608 1.25752 10.8194 1.23866 10.7147 1.30012C10.6124 1.36036 10.5461 1.50093 10.5461 1.50093C10.5461 1.50093 10.2448 2.28894 9.84246 2.95951C8.9938 4.37367 8.65471 4.44852 8.51585 4.36089C8.19288 4.15583 8.27346 3.5382 8.27346 3.09947C8.27346 1.72851 8.48547 1.15712 7.86122 1.00925C7.65417 0.959965 7.50167 0.927714 6.97165 0.922238C6.2916 0.915544 5.71632 0.924672 5.39025 1.08106C5.17328 1.18511 5.0059 1.41756 5.10819 1.43095C5.23403 1.44738 5.51919 1.5064 5.67045 1.70843C5.86572 1.96947 5.8589 2.55485 5.8589 2.55485C5.8589 2.55485 5.97111 4.16861 5.59668 4.3688C5.34004 4.50633 4.98793 4.22581 4.23101 2.94247C3.84357 2.28529 3.55097 1.55873 3.55097 1.55873C3.55097 1.55873 3.49456 1.42304 3.39351 1.35002C3.27139 1.26178 3.10091 1.2344 3.10091 1.2344L1.29015 1.24596C1.29015 1.24596 1.01801 1.25326 0.918201 1.36949C0.829554 1.47233 0.911382 1.68591 0.911382 1.68591C0.911382 1.68591 2.32912 4.94202 3.9347 6.58315C5.40699 8.08737 7.07827 7.9888 7.07827 7.9888H7.83581Z" fill="white"/>
</svg>
